<svg width="426" height="57" xmlns="http://www.w3.org/2000/svg"><g fill="none" fill-rule="evenodd"><path d="M374 32.5a11.5 11.5 0 110 23 11.5 11.5 0 010-23zm-3.7 6.4c-2.2-.1-2.8 3-3 3.5-.6 0-1-.2-1-.2l-.1.4c.4.3 1 .3 1 .3 0 .9-.7 2.4-.7 2.4s-.6-.2-1.3-.2c-1 0-1.3.5-1.3.8 0 .7.8 1 1.5 1a3 3 0 001.9-.6s3.6 1.3 7.3 1.3c4.8 0 9-1.3 9-1.3l-.2-.4s-3 1-8.7 1c-3.9-.1-6.9-1.3-6.9-1.3l.2-.3.9-2.4s2.7-.8 2.7-2.9c0-.7-.7-1.1-1.3-1.1zm-5.2 6.8c.6 0 1 .2 1 .2s-.5.5-1 .5c-.3 0-.6-.3-.6-.4 0-.2.2-.3.4-.3h.2zm15.6-3.2a2 2 0 00-2 1.8v.1s-.5.6-1 .6-.6-.4-.6-.6c0-.3.2-1.3.8-1.3.4 0 .5.3.5.3l.2-.6s-.3-.3-.8-.3c-1.3 0-2.1 1-2.2 1.8v.2s-.3.4-.7.4c-.3 0-.3-.2-.3-.3l.5-2h-1.4l-.5 1.8s-.8.6-1.9.7c-.5 0-.7-.3-.7-.5v-.1h.4c.1 0 1.8-.1 1.8-1.1 0-.6-.6-.8-1.3-.8-1.4 0-2.3.8-2.3 1.8s.7 1.3 1.7 1.3c1.2 0 2.3-.7 2.3-.7s0 .7 1 .7c.9 0 1.6-.7 1.6-.7s.4.7 1.3.7c1 0 1.7-.8 1.7-.8s.2.7 1.2.7c.7 0 1-.4 1-.4s.3.4 1 .4 1.3-.5 1.3-.5l-.2-.5s-.3.3-.5.3l-.2-.3.5-2h-1.3v.2s-.2-.3-.9-.3zm.3.5c.2 0 .4.2.4.4 0 0-.2 1.6-1 1.6-.3 0-.3-.4-.3-.5 0-.3.2-1.5.9-1.5zm-9.5 0c.2 0 .4.1.4.3 0 .9-1.2.7-1.2.7s.2-1 .8-1zm-1.1-3.5c.4 0 .6.3.5.6-.2 1.8-2 2.2-2 2.2V42c.2-.7.6-2.6 1.5-2.6zm4.3 1.4c-.5 0-.8.2-.8.7 0 .4.4.5.8.5s.8-.2.8-.6c0-.5-.5-.6-.8-.6z" fill="#E60012"/><path d="M238.8 40.8a3 3 0 011.8.5l-.2.4-.8-.3-.8-.1a2 2 0 00-1.2.3c-.3.3-.6.6-.7 1-.2.5-.3 1-.3 1.6 0 .6 0 1 .3 1.5a2 2 0 002 1.4l.8-.1c.3 0 .5-.2.8-.3l.2.4-.9.4a3.5 3.5 0 01-2.5-.3 4 4 0 01-1-1.2l-.2-1.7c0-.7 0-1.3.3-1.8.2-.6.5-1 1-1.3.3-.3.8-.4 1.4-.4zm6.9 0c.6 0 1 .1 1.5.4.4.3.8.7 1 1.2.2.5.3 1 .3 1.7s0 1.3-.3 1.9a2.8 2.8 0 01-2.7 1.6c-.6 0-1-.2-1.5-.4a3 3 0 01-1-1.2c-.2-.5-.3-1-.3-1.8 0-.6.1-1.3.3-1.8a2.8 2.8 0 012.7-1.6zm27.4 0l1 .1.9.4-.2.5-.8-.4a3 3 0 00-.9-.1c-.5 0-1 .1-1.3.3-.4.3-.7.6-.9 1-.2.5-.3 1-.3 1.6 0 .6 0 1 .3 1.5.1.4.4.8.7 1 .4.3.8.4 1.4.4a3.8 3.8 0 001.6-.4V45h-1.7v-.5h2.2V47a4.5 4.5 0 01-2.2.6c-.6 0-1.1-.2-1.5-.4-.5-.3-.8-.7-1-1.2-.2-.5-.3-1.1-.3-1.8s0-1.3.4-1.8a2.8 2.8 0 012.6-1.6zm30.2 0c.4 0 .7.1 1 .3.3 0 .5.3.7.5l.2 1a2 2 0 01-.7 1.6l-.7.4 2 2.9h-.7l-1.9-2.8h-1v2.8h-.6v-6.6h1.7zm39.4 0v.6h-2v6h-.4v-6h-2v-.5h4.4zm-43.7 0l-.1.6H296v2.4h2.6v.5H296V47h2.9l-.1.5h-3.3v-6.6h3.4zm46.7 0v3h3.6v-3h.5v6.7h-.5v-3.2h-3.6v3.2h-.6v-6.6h.6zm-9.8 0v6.7h-.5v-6.6h.5zm-10.2 0l1.1 4.3.4 1.6a76.2 76.2 0 01.4-1.7l1.2-4.1h.5l1.2 4.2a21.5 21.5 0 01.4 1.6c0-.4.2-.9.4-1.5l1-4.3h.6l-1.7 6.6h-.5l-1.1-4a52.2 52.2 0 01-.6-2 52 52 0 01-.5 2l-1 4h-.6l-1.7-6.6h.5zm-14.2 0l-.1.6h-2.8v2.4h2.6v.5h-2.6V47h2.9v.5H308v-6.6h3.4zm-18.6 0l-.1.6H290v2.4h2.7v.5H290V47h3l-.2.5h-3.3v-6.6h3.4zm-10.6 0l3.6 5.9v-5.8h.5v6.6h-.6l-3.6-5.9v5.9h-.5v-6.6h.6zm-3.8 0v6.7h-.5v-6.6h.5zm-15.3 0l3.7 5.9v-5.8h.4v6.6h-.5l-3.7-5.9v5.9h-.4v-6.6h.5zm-3.2 0l-.1.6H257v2.4h2.6v.5H257V47h3l-.2.5h-3.3v-6.6h3.4zm55.8 0a4 4 0 011.8.4c.4.3.8.6 1 1 .3.5.4 1.1.4 1.8a4 4 0 01-.3 1.8 3 3 0 01-1.2 1.3c-.5.2-1 .4-1.7.4H314v-6.6h1.7zm-70.2.5a2.2 2.2 0 00-2.1 1.4l-.3 1.5.3 1.5c.2.4.4.7.8 1 .3.3.8.4 1.3.4s1-.1 1.3-.4c.4-.2.6-.6.8-1l.3-1.5c0-.6-.1-1-.3-1.5-.1-.4-.4-.8-.7-1-.4-.3-.8-.4-1.4-.4zm70.1 0h-1V47h1a3 3 0 001.5-.4 2 2 0 001-1c.2-.5.3-1 .3-1.6 0-.9-.2-1.5-.7-2a3 3 0 00-2-.6zM253.3 44v.6h-1.9V44h2zm49.9-2.5h-1v2.8h.8c.4 0 .6 0 .9-.2l.6-.6.2-.8c0-.8-.5-1.2-1.5-1.2zM363.4 1v26.1h-1.2V1h1.2zm-149 6.7c1.4 0 2.6.3 3.6.8s1.8 1.3 2.4 2.5c.5 1.2.8 2.8.8 4.8V23l.1 3.5h-2.8l-.3-2.6c-.6.8-1.5 1.5-2.6 2-1 .6-2.2 1-3.5 1-1 0-2-.3-2.8-.7a5 5 0 01-2-1.8 7 7 0 01-.6-3c0-1.8.6-3.2 1.8-4.3 1.3-1 3.3-1.6 6.2-1.6 1.1 0 2.3 0 3.4.2v-.4c0-2-.3-3.3-1-4a4.1 4.1 0 00-3.2-1.2 14.4 14.4 0 00-5.3 1.3l-.5-2.4 2.7-1c1.1-.2 2.3-.4 3.6-.4zm29.6 0a6.5 6.5 0 016.3 4.3c.5 1.3.8 2.7.8 4.3v1.1h-12c.1 2.4.6 4 1.6 5.2 1 1.2 2.4 1.8 4.3 1.8 1.7 0 3.4-.4 5-1.2l.8 2.3a13 13 0 01-6.4 1.4c-1.8 0-3.3-.3-4.6-1a7 7 0 01-2.8-3.3 14.3 14.3 0 010-10.4 7.6 7.6 0 012.8-3.3 7.4 7.4 0 014.2-1.2zm-14.7-4.4v4.8h5.4l-.5 2.5h-4.9v10.2c0 1.2.2 2.1.7 2.7.4.6 1.1.8 2 .8a8 8 0 002.6-.5l.6 2.2a9.1 9.1 0 01-4 1c-1.6 0-2.8-.5-3.6-1.4-.9-1-1.3-2.4-1.3-4.5V10.6h-2.4l.5-2.2 2-.3.2-4.3 2.7-.5zM61 1.6v14c0 7.2-4 11.2-10.8 11.2-6.7 0-10.6-4-10.6-11V1.6h5v14c0 4.2 2 6.4 5.7 6.4 3.6 0 5.6-2.1 5.6-6.2V1.6h5zm222 0c2.7 0 4.7 1 6 3.1 1.2 2.1 1.9 5.2 1.9 9.2 0 4.2-.7 7.3-2 9.6a6.6 6.6 0 01-6 3.3c-2.7 0-4.6-1-6-3.2a18 18 0 01-1.9-9.2c0-4 .7-7.3 2-9.5a6.6 6.6 0 016-3.4zm58.4 6.2c1.6 0 3.1.4 4.4 1.1 1.3.8 2.3 2 3 3.4.7 1.4 1.1 3 1.1 5s-.4 3.7-1.1 5.1a7.9 7.9 0 01-3.1 3.3 8.8 8.8 0 01-4.5 1.1c-1.6 0-3-.4-4.4-1a7.7 7.7 0 01-3-3.3c-.7-1.4-1-3-1-5s.3-3.7 1-5.2a8 8 0 017.6-4.5zM181.7 1.6l6.4 15.7c1 2.3 1.6 4.2 2 5.6a68 68 0 012-5.6l6.5-15.7h4v25h-3V11.3c0-1.4 0-3.5.2-6a55 55 0 01-2 5.2l-6.6 16.1h-2.5L182 10a44.3 44.3 0 01-1.7-4.8 70.1 70.1 0 01.2 6v15.4h-2.9v-25h4.1zm208.7.2l-.3 2.6h-9.6l-.6 7.1a11.8 11.8 0 017.8.4 6.7 6.7 0 014 6.5c0 1.7-.3 3.1-1 4.3a7.1 7.1 0 01-3 2.9 12 12 0 01-12-1.3l1-2.6a11 11 0 003 1.7c1 .4 2.2.6 3.4.6a6 6 0 003-.7c.8-.4 1.4-1 1.8-1.9.4-.8.6-1.8.6-2.9 0-1.6-.5-2.9-1.5-3.7-1-.9-2.5-1.3-4.3-1.3a14.6 14.6 0 00-5.6 1l1-12.7h12.3zm16.7-.4a16 16 0 017.5 1.8l-1 2.5a14.5 14.5 0 00-6.4-1.6c-1.8 0-3.4.4-4.8 1.2a8 8 0 00-3.3 3.4 12 12 0 00-1.1 5.5c0 1.9.3 3.5.9 5a7.5 7.5 0 002.8 3.4c1.3.9 3 1.3 4.9 1.3a15.3 15.3 0 005.5-1v-5.6H406v-2.6h9.2v9.8a20 20 0 01-8.8 2c-2.4 0-4.6-.4-6.3-1.5a10 10 0 01-4-4.3c-1-1.8-1.4-4-1.4-6.5 0-2.7.5-5 1.6-7 1-1.9 2.5-3.3 4.4-4.3 1.9-1 4-1.5 6.4-1.5zm-138.3.3v16.6h3.6l-.5 2.6h-3v5.6h-3.1v-5.6h-11v-2.3l11-17h3zm-160.3 0l5.6 17 5.5-17h5.3l-8.7 24.8H112L106.4 10l-5.7 16.4h-4.2L88 1.6h5.3l5.5 17.1 5.7-17h4zM16 1.6v10h11.4v-10h5v24.8h-5v-10H16v10h-5V1.7h5zm314.9 6c.6 0 1.1.1 1.6.3l-.4 2.8-1.4-.2c-1 0-1.9.3-2.7.9a12 12 0 00-2.5 2.8v12.2h-3.1V12.7l-.1-4.6h2.9a36.8 36.8 0 01.3 3.6l1.4-2c.5-.6 1-1 1.7-1.4.7-.4 1.4-.5 2.3-.5zm-20.8-6c3 0 5.3.6 6.9 1.9 1.6 1.2 2.4 3 2.4 5.3a8 8 0 01-1.2 4.3 7.5 7.5 0 01-3 2.9c-1.4.6-3 1-4.7 1a15 15 0 01-3.4-.4v9.8h-3.2V1.7h6.2zm-231.3 0l11 24.8h-5.3l-2.3-5.2H71l-2.3 5.2h-5.2l11-24.9h4.4zm68.4 0v4.5H134v5h9.2v4.6H134v6.1h13.8v4.6H129V1.6h18.3zm11.5 0v24.7h-5V1.6h5zm56.4 16c-2 0-3.4.3-4.2 1-.7.6-1.1 1.5-1.1 2.6 0 1 .3 1.9.8 2.4.6.5 1.3.7 2.2.7a7 7 0 005.3-2.6v-4l-3-.2zm126-7.4c-1.7 0-3 .6-3.9 1.9-.9 1.3-1.3 3-1.3 5 0 1.5.2 2.8.6 3.9.5 1 1 1.8 1.9 2.4.8.5 1.8.8 3 .8 1.7 0 3-.6 3.8-1.8a8.4 8.4 0 001.3-5c0-2.2-.4-4-1.3-5.3-1-1.3-2.3-2-4-2zM283 4c-3.2 0-4.8 3.4-4.8 10.3 0 3.2.3 5.7 1 7.3.8 1.7 2 2.6 3.7 2.6 1.7 0 3-.9 3.7-2.6a19 19 0 001.2-7.6c0-3.2-.4-5.7-1.1-7.4-.8-1.8-2-2.6-3.7-2.6zm-17.1 1.6l-8.2 12.6h8.2V5.7zM76.5 8l-3.8 8.9h7.7L76.5 8zm167.3 2.2c-1.2 0-2.2.4-3 1.3a7 7 0 00-1.5 3.8h8.7c0-1.7-.5-3-1.2-3.8a3.6 3.6 0 00-3-1.3zM310 4.3h-3v9.9l2.9.3c2 0 3.6-.5 4.6-1.5a5 5 0 001.6-4c0-1.6-.5-2.8-1.5-3.6-1-.7-2.6-1.1-4.6-1.1z" fill="#211D1E"/></g></svg>